<svg xmlns="http://www.w3.org/2000/svg" xml:space="preserve" viewBox="0 0 58 58"><path d="M26 25V13.5c0-2.475 2.025-4.5 4.5-4.5h0c2.475 0 4.5 2.025 4.5 4.5V17c0 2.2 1.8 4 4 4h0c2.2 0 4-1.8 4-4V1" style="fill:none;stroke:#38454f;stroke-width:2;stroke-linecap:round;stroke-miterlimit:10"/><path d="M1 25h56v33H1z" style="fill:#38454f"/><path d="M52 53H6V30h21v8h25z" style="fill:#cbd4d8"/><path d="M21 40h-3v-3h-4v3h-3v4h3v3h4v-3h3z" style="fill:#546a79"/><circle cx="45.5" cy="45.5" r="2.5" style="fill:#dd352e"/><circle cx="36.5" cy="45.5" r="2.5" style="fill:#dd352e"/><path d="M25 46h5" style="fill:none;stroke:#afb6bb;stroke-width:2;stroke-linecap:round;stroke-miterlimit:10"/></svg>